<!DOCTYPE svg PUBLIC "-//W3C//DTD SVG 20010904//EN" "http://www.w3.org/TR/2001/REC-SVG-20010904/DTD/svg10.dtd">
<svg version="1.0" xmlns="http://www.w3.org/2000/svg" width="268px" height="60px" viewBox="0 0 2680 600" preserveAspectRatio="xMidYMid meet">
<g id="layer101" fill="#000000" stroke="none">
 <path d="M120 443 c-48 -25 -70 -73 -70 -153 0 -127 50 -173 182 -168 65 3 80 7 104 28 36 34 54 79 54 140 0 61 -18 106 -54 140 -24 21 -39 25 -104 28 -59 2 -85 -1 -112 -15z m145 -108 c30 -30 31 -54 4 -89 -40 -50 -119 -21 -119 44 0 64 70 91 115 45z"/>
 <path d="M480 442 c-48 -23 -70 -71 -70 -152 0 -121 49 -170 168 -170 108 0 158 35 169 120 l6 40 -50 0 c-43 0 -51 -3 -61 -25 -22 -49 -108 -44 -126 8 -21 59 26 109 88 93 15 -4 32 -18 38 -31 10 -22 18 -25 60 -25 46 0 48 1 48 28 0 42 -33 95 -71 114 -22 12 -57 18 -99 18 -42 0 -77 -6 -100 -18z"/>
 <path d="M890 340 l0 -120 -60 0 -60 0 0 -50 0 -50 170 0 170 0 0 50 0 50 -60 0 -60 0 0 120 0 120 -50 0 -50 0 0 -120z"/>
 <path d="M1200 443 c-48 -25 -70 -73 -70 -153 0 -127 50 -173 182 -168 65 3 80 7 104 28 36 34 54 79 54 140 0 61 -18 106 -54 140 -24 21 -39 25 -104 28 -59 2 -85 -1 -112 -15z m145 -108 c30 -30 31 -54 4 -89 -40 -50 -119 -21 -119 44 0 64 70 91 115 45z"/>
 <path d="M1652 290 l-164 -170 38 0 c36 0 47 8 141 102 l103 103 0 -103 0 -102 30 0 30 0 0 170 c0 94 -3 170 -7 170 -5 -1 -82 -77 -171 -170z"/>
 <path d="M1870 290 l0 -170 145 0 c142 0 147 1 170 25 43 42 30 140 -22 164 -13 6 -59 11 -102 11 -68 0 -80 -3 -99 -23 -12 -13 -22 -26 -22 -30 0 -3 46 -8 103 -9 l102 -3 3 -28 c6 -50 -10 -57 -124 -57 l-104 0 0 145 0 145 -25 0 -25 0 0 -170z"/>
 <path d="M2260 289 c0 -133 3 -169 13 -163 6 4 67 52 134 106 67 54 124 98 128 98 3 0 5 -47 5 -105 l0 -105 30 0 30 0 0 170 c0 94 -3 170 -7 170 -5 -1 -69 -50 -143 -109 l-135 -109 -3 109 c-3 108 -3 109 -27 109 l-25 0 0 -171z"/>
 </g>

</svg>